<svg width="338" height="31" viewBox="0 0 338 31" fill="none" xmlns="http://www.w3.org/2000/svg">
<path d="M176.514 5.99976H161.717L154.318 18.4999L161.717 31H176.514L183.886 18.4999L176.514 5.99976Z" fill="#C44B43"/>
<path d="M156.393 5.99976H146.717L139.344 18.4999L146.717 31H156.393L148.995 18.4999L156.393 5.99976Z" fill="#C44B43"/>
<path d="M141.596 5.99976H131.945L124.547 18.4999L131.945 31H141.596L134.224 18.4999L141.596 5.99976Z" fill="#C44B43"/>
<path d="M126.774 5.99976H117.097L109.725 18.4999L117.097 31H126.774L119.376 18.4999L126.774 5.99976Z" fill="#C44B43"/>
<path d="M111.975 5.99976H102.324L94.9258 18.4999L102.324 31H111.975L104.603 18.4999L111.975 5.99976Z" fill="#C44B43"/>
<path d="M97.2058 5.99976H87.5546L80.1562 18.4999L87.5546 31H97.2058L89.8074 18.4999L97.2058 5.99976Z" fill="#C44B43"/>
<path d="M82.4346 5.99976H72.7578L65.3594 18.4999L72.7578 31H82.4346L75.0362 18.4999L82.4346 5.99976Z" fill="#0E1D27"/>
<path d="M67.5867 5.99976H57.9099L50.5371 18.4999L57.9099 31H67.5867L60.1883 18.4999L67.5867 5.99976Z" fill="#0E1D27"/>
<path d="M52.7879 5.99976H43.1367L35.7383 18.4999L43.1367 31H52.7879L45.4151 18.4999L52.7879 5.99976Z" fill="#0E1D27"/>
<path d="M37.9402 5.99976H28.289L20.8906 18.4999L28.289 31H37.9402L30.5674 18.4999L37.9402 5.99976Z" fill="#0E1D27"/>
<path d="M23.1707 5.99976H13.5195L6.12109 18.4999L13.5195 31H23.1707L15.7723 18.4999L23.1707 5.99976Z" fill="#0E1D27"/>
<path d="M181.633 5.99976H191.284L198.682 18.4999L191.284 31H181.633L189.006 18.4999L181.633 5.99976Z" fill="#C44B43"/>
<path d="M196.404 5.99976H206.056L213.454 18.4999L206.056 31H196.404L203.803 18.4999L196.404 5.99976Z" fill="#C44B43"/>
<path d="M211.252 5.99976H220.903L228.302 18.4999L220.903 31H211.252L218.625 18.4999L211.252 5.99976Z" fill="#C44B43"/>
<path d="M226.023 5.99976H235.675L243.073 18.4999L235.675 31H226.023L233.422 18.4999L226.023 5.99976Z" fill="#C44B43"/>
<path d="M240.797 5.99976H250.474L257.846 18.4999L250.474 31H240.797L248.195 18.4999L240.797 5.99976Z" fill="#C44B43"/>
<path d="M255.592 5.99976H265.243L272.641 18.4999L265.243 31H255.592L262.965 18.4999L255.592 5.99976Z" fill="#0E1D27"/>
<path d="M270.439 5.99976H280.091L287.489 18.4999L280.091 31H270.439L277.812 18.4999L270.439 5.99976Z" fill="#0E1D27"/>
<path d="M285.211 5.99976H294.862L302.261 18.4999L294.862 31H285.211L292.609 18.4999L285.211 5.99976Z" fill="#0E1D27"/>
<path d="M300.059 5.99976H309.71L317.108 18.4999L309.71 31H300.059L307.457 18.4999L300.059 5.99976Z" fill="#0E1D27"/>
<path d="M314.83 5.99976H324.507L331.88 18.4999L324.507 31H314.83L322.229 18.4999L314.83 5.99976Z" fill="#0E1D27"/>
<path d="M337 18.5002L326.658 1H11.3424L1 18.5002" stroke="#0E1D27" stroke-width="0.75" stroke-miterlimit="10"/>
</svg>
