<svg width="120" height="22" viewBox="0 0 120 22" fill="none" xmlns="http://www.w3.org/2000/svg">
<g clip-path="url(#clip0_882_3529)">
<path d="M0.995508 13.721C0.997488 13.5733 1.02592 13.427 1.07951 13.2883C1.02654 13.1495 0.998128 13.0032 0.995508 12.8555V9.18486C0.997488 9.03709 1.02592 8.8907 1.07951 8.75205C1.02654 8.61323 0.998128 8.46694 0.995508 8.31923V4.64859C0.995244 4.47256 1.03577 4.2986 1.11416 4.13926C1.19255 3.97993 1.30686 3.83913 1.44895 3.72689C1.58915 3.61384 1.75327 3.531 1.93006 3.48397C2.10686 3.43695 2.2922 3.42688 2.47346 3.45442C2.8558 3.51744 3.23426 3.60033 3.60711 3.70283C3.82182 3.60357 4.0571 3.55158 4.29567 3.5506C4.55508 3.54992 4.81031 3.61293 5.0368 3.73364C5.26328 3.85436 5.45341 4.0287 5.58888 4.23984V3.767C5.5892 3.57845 5.63569 3.39249 5.72462 3.22412C5.81356 3.05575 5.94249 2.90956 6.10113 2.79718C6.21402 2.7139 6.34215 2.6514 6.479 2.61286V1.23437C6.47896 1.0734 6.51257 0.914067 6.57786 0.76565C6.64316 0.617232 6.73882 0.482706 6.85925 0.370008C6.97967 0.257311 7.12246 0.168665 7.27922 0.10928C7.43598 0.0498956 7.60358 0.0209667 7.7722 0.0241648L9.11579 0.0241648C9.33446 0.0261763 9.54891 0.081739 9.73859 0.185591C9.92828 0.289443 10.0868 0.438093 10.1991 0.617235L12.248 3.90319L15.397 4.70465L73.2718 4.70465C73.3387 4.69693 73.4064 4.69693 73.4733 4.70465C73.5387 4.71331 73.6032 4.72675 73.6665 4.74476L79.8721 6.58013L92.5858 6.58013C92.5858 6.58013 92.6445 6.58013 92.6781 6.58013L101.411 7.78231H106.349C106.419 7.77441 106.489 7.77441 106.559 7.78231C106.73 7.80844 106.893 7.86849 107.038 7.95861L108.868 9.08869L110.548 9.28103C110.728 9.19049 110.928 9.14309 111.131 9.14309C111.335 9.14309 111.535 9.19049 111.715 9.28103L112.101 9.45733H117.383C117.596 9.45733 117.807 9.49729 118.003 9.57503C118.2 9.65276 118.379 9.76677 118.529 9.9104C118.68 10.054 118.799 10.2245 118.881 10.4122C118.962 10.5999 119.004 10.801 119.004 11.0041C119.004 11.2072 118.962 11.4084 118.881 11.5961C118.799 11.7838 118.68 11.9542 118.529 12.0979C118.379 12.2415 118.2 12.3554 118.003 12.4332C117.807 12.5109 117.596 12.5509 117.383 12.5509H112.101L111.715 12.7272C111.535 12.8178 111.335 12.8651 111.131 12.8651C110.928 12.8651 110.728 12.8178 110.548 12.7272L108.868 12.9196L107.038 14.0497C106.832 14.1757 106.593 14.2425 106.349 14.242H101.411L92.6781 15.4442C92.6361 15.4442 92.6025 15.4442 92.5606 15.4442L79.8721 15.4442L73.6413 17.2876C73.5658 17.2921 73.49 17.2921 73.4145 17.2876C73.367 17.2915 73.3193 17.2915 73.2718 17.2876L15.3802 17.2876L12.2312 18.089L10.1907 21.383C10.0765 21.5623 9.91635 21.7108 9.72535 21.8146C9.53434 21.9183 9.31875 21.9739 9.09898 21.9761H7.7722C7.60497 21.9761 7.4394 21.9446 7.28501 21.8832C7.13062 21.8219 6.99045 21.732 6.8726 21.6188C6.75474 21.5056 6.66152 21.3712 6.59829 21.2234C6.53506 21.0757 6.50308 20.9175 6.50419 20.7579V19.3794C6.36361 19.3397 6.23243 19.2744 6.11792 19.187C5.96243 19.0742 5.83614 18.9288 5.74879 18.762C5.66144 18.5953 5.61535 18.4116 5.61407 18.2252V17.7604C5.47582 17.9685 5.28488 18.14 5.05886 18.2591C4.83285 18.3781 4.57905 18.4409 4.32089 18.4416C4.08118 18.442 3.84492 18.387 3.6323 18.2814C2.9941 18.4577 2.53222 18.5298 2.50703 18.5378C2.32482 18.5668 2.13822 18.5578 1.96005 18.5112C1.78188 18.4646 1.61641 18.3817 1.47509 18.2682C1.33377 18.1546 1.21993 18.0132 1.14148 17.8536C1.06303 17.6939 1.02185 17.5199 1.02072 17.3436L0.995508 13.721Z" fill="#FFD5A7"/>
<path d="M90.4336 14.1949V7.80518L79.6926 7.80518V14.1949H90.4336Z" fill="#C44B43"/>
<path d="M6.85827 8.85278L15.1387 10.996L6.85827 13.1393V8.85278Z" fill="#C44B43"/>
<path d="M6.85827 3.7666L15.1387 5.87752L6.85827 5.87752V3.7666Z" fill="#C44B43"/>
<path d="M101.334 9.0127V13.0113H106.373L108.473 11.7317V10.3082L106.373 9.03671L101.334 9.0127Z" fill="#FFD5A7"/>
<path d="M17.6562 16.0981V5.88574H16.8584V16.0981H17.6562Z" fill="#FFD5A7"/>
<path d="M76.4763 14.2108V6.84546L79.7012 7.77313V14.2108H76.4763Z" fill="#FFD5A7"/>
<path d="M67.7348 8.96471V8.16499C67.7361 8.15418 67.7349 8.14316 67.7311 8.13287C67.7274 8.12259 67.7213 8.11324 67.7132 8.10554C67.7051 8.09784 67.6953 8.09202 67.6845 8.08846C67.6737 8.08489 67.6622 8.08366 67.6508 8.08494L56.4731 8.08494C56.4617 8.08366 56.4502 8.08489 56.4394 8.08846C56.4286 8.09202 56.4188 8.09784 56.4107 8.10554C56.4026 8.11324 56.3965 8.12259 56.3927 8.13287C56.389 8.14316 56.3878 8.15418 56.3891 8.16499V8.96471C56.3878 8.97552 56.389 8.98644 56.3927 8.99673C56.3965 9.00701 56.4026 9.01636 56.4107 9.02406C56.4188 9.03176 56.4286 9.03758 56.4394 9.04114C56.4502 9.04471 56.4617 9.04594 56.4731 9.04466L67.6508 9.04466C67.6622 9.04594 67.6737 9.04471 67.6845 9.04114C67.6953 9.03758 67.7051 9.03176 67.7132 9.02406C67.7213 9.01636 67.7274 9.00701 67.7311 8.99673C67.7349 8.98644 67.7361 8.97552 67.7348 8.96471ZM88.6121 12.3874V11.7956C88.6122 11.7844 88.6098 11.7734 88.6051 11.7631C88.6003 11.7529 88.5934 11.7436 88.5847 11.7361C88.576 11.7285 88.5657 11.7228 88.5545 11.7193C88.5433 11.7158 88.5315 11.7146 88.5198 11.7157H82.6412C82.6189 11.7157 82.5976 11.7241 82.5818 11.7391C82.5661 11.7541 82.5572 11.7744 82.5572 11.7956V12.3874C82.5571 12.4094 82.5657 12.4307 82.5812 12.447C82.5968 12.4632 82.6182 12.4735 82.6412 12.4755H88.5198C88.5443 12.4755 88.5678 12.4662 88.5851 12.4497C88.6024 12.4332 88.6121 12.4107 88.6121 12.3874ZM88.6121 11.4198V9.62843C88.4464 10.034 88.1843 10.3974 87.8462 10.6902C87.5082 10.9829 87.1035 11.1971 86.6638 11.3158H82.616C82.593 11.3178 82.5716 11.3279 82.556 11.3442C82.5405 11.3605 82.5319 11.3818 82.532 11.4038C82.5339 11.4244 82.5434 11.4437 82.5587 11.4583C82.5741 11.473 82.5944 11.4819 82.616 11.4837H88.4946C88.5067 11.4873 88.5195 11.4885 88.5321 11.4872C88.5448 11.4859 88.557 11.4822 88.568 11.4762C88.579 11.4702 88.5887 11.4621 88.5963 11.4524C88.6038 11.4427 88.6093 11.4316 88.6121 11.4198ZM9.18407 20.8244L9.53678 20.2647L11.4683 17.1618L15.2306 16.1941L73.269 16.1941L79.6683 14.3067H92.534L101.352 13.0992H106.391C106.399 13.1027 106.407 13.1046 106.416 13.1046C106.425 13.1046 106.433 13.1027 106.441 13.0992L108.507 11.8276L111.102 11.5318V11.6677C111.096 11.6789 111.093 11.6912 111.093 11.7037C111.093 11.7162 111.096 11.7285 111.102 11.7397C111.117 11.7456 111.132 11.7487 111.148 11.7487C111.164 11.7487 111.18 11.7456 111.194 11.7397L111.816 11.4518H117.375C117.493 11.4518 117.606 11.4071 117.69 11.3276C117.773 11.2481 117.82 11.1403 117.82 11.0279C117.82 10.9726 117.809 10.9179 117.786 10.867C117.764 10.816 117.731 10.7698 117.689 10.7311C117.648 10.6923 117.599 10.6619 117.545 10.6415C117.491 10.621 117.433 10.611 117.375 10.6121H111.816L111.194 10.3242C111.181 10.317 111.167 10.3133 111.152 10.3134C111.137 10.3136 111.122 10.3175 111.109 10.3249C111.096 10.3322 111.086 10.3427 111.079 10.3552C111.071 10.3678 111.068 10.3819 111.068 10.3961V10.5401L108.465 10.2362L107.953 9.91632L106.416 8.96471C106.402 8.95978 106.387 8.95978 106.374 8.96471L101.335 8.96471L92.5172 7.75713L79.6935 7.75713L73.2942 5.86982L15.239 5.86982L11.4851 4.9101L9.19248 1.23944C9.18604 1.22538 9.17549 1.21339 9.16209 1.20488C9.14868 1.19637 9.13298 1.19166 9.11688 1.19141L7.76481 1.19141C7.75304 1.19135 7.74138 1.19373 7.7306 1.19824C7.71982 1.20275 7.71017 1.20937 7.70225 1.21767C7.69434 1.22596 7.68834 1.23572 7.68465 1.24637C7.68096 1.25701 7.67965 1.26831 7.68083 1.27946V3.92647L6.90823 3.72654C6.89651 3.72091 6.88355 3.71795 6.87043 3.71795C6.8573 3.71795 6.84437 3.72091 6.83265 3.72654C6.82066 3.73309 6.81055 3.74232 6.80323 3.75348C6.7959 3.76464 6.79158 3.77735 6.79065 3.79048V5.8458H5.7745C5.42872 5.61964 5.0602 5.42679 4.67436 5.27003V5.04609C4.66125 4.9649 4.61804 4.89086 4.55258 4.83737C4.48711 4.78389 4.40369 4.75449 4.31743 4.75449C4.23118 4.75449 4.14778 4.78389 4.08232 4.83737C4.01685 4.89086 3.97365 4.9649 3.96053 5.04609C3.41165 4.86997 2.85036 4.73099 2.28091 4.63022C2.26919 4.62459 2.25626 4.62163 2.24313 4.62163C2.23001 4.62163 2.21708 4.62459 2.20536 4.63022C2.19767 4.65092 2.19767 4.67346 2.20536 4.69416V8.35692C2.19767 8.37761 2.19767 8.40016 2.20536 8.42086C2.23003 8.42774 2.25623 8.42774 2.28091 8.42086C2.85109 8.31965 3.41255 8.17795 3.96053 7.99699C3.97069 8.07973 4.01206 8.15615 4.07694 8.21205C4.14181 8.26794 4.22578 8.29951 4.31326 8.30088L7.16016 8.30088V8.86074L6.9418 8.80471C6.93008 8.79908 6.91715 8.79621 6.90403 8.79621C6.8909 8.79621 6.87795 8.79908 6.86622 8.80471C6.85369 8.81062 6.84314 8.81977 6.83573 8.83106C6.82831 8.84236 6.82434 8.85543 6.82424 8.86874V10.3562H5.8081C5.46232 10.13 5.09377 9.93709 4.70794 9.78033V9.55649C4.70079 9.47394 4.66262 9.39657 4.6004 9.33869C4.53818 9.28081 4.45609 9.24633 4.36926 9.24146C4.28242 9.2366 4.19668 9.26171 4.12776 9.31224C4.05884 9.36277 4.01139 9.43528 3.99413 9.51646C3.44525 9.34034 2.88399 9.20137 2.31453 9.1006C2.30281 9.09497 2.28988 9.0921 2.27676 9.0921C2.26363 9.0921 2.25065 9.09497 2.23893 9.1006C2.23125 9.12129 2.23125 9.14394 2.23893 9.16464V12.8273C2.23125 12.848 2.23125 12.8705 2.23893 12.8912C2.2636 12.8981 2.28986 12.8981 2.31453 12.8912C2.88471 12.79 3.44615 12.6484 3.99413 12.4675C4.00725 12.5486 4.05042 12.6226 4.11589 12.6761C4.18136 12.7296 4.26478 12.7591 4.35103 12.7591C4.43729 12.7591 4.52071 12.7296 4.58618 12.6761C4.65164 12.6226 4.69482 12.5486 4.70794 12.4675V12.2435C5.09554 12.087 5.4644 11.8913 5.8081 11.6597H6.82424V13.1552C6.82517 13.1683 6.82948 13.181 6.8368 13.1922C6.84413 13.2034 6.85424 13.2126 6.86622 13.2191C6.87795 13.2248 6.8909 13.2277 6.90403 13.2277C6.91715 13.2277 6.93008 13.2248 6.9418 13.2191L7.16016 13.1632V13.715H4.31326C4.22578 13.7163 4.14181 13.7479 4.07694 13.8038C4.01206 13.8597 3.97069 13.9361 3.96053 14.0189C3.41165 13.8427 2.85036 13.7038 2.28091 13.603C2.26919 13.5974 2.25626 13.5945 2.24313 13.5945C2.23001 13.5945 2.21708 13.5974 2.20536 13.603C2.19767 13.6237 2.19767 13.6463 2.20536 13.667V17.3297C2.19636 17.3529 2.19636 17.3784 2.20536 17.4016C2.22996 17.409 2.25631 17.409 2.28091 17.4016C2.85109 17.3004 3.41255 17.1587 3.96053 16.9778C3.97365 17.059 4.01685 17.133 4.08232 17.1865C4.14778 17.24 4.23118 17.2694 4.31743 17.2694C4.40369 17.2694 4.48711 17.24 4.55258 17.1865C4.61804 17.133 4.66125 17.059 4.67436 16.9778V16.7539C5.06197 16.5974 5.4308 16.4017 5.7745 16.1701H6.79065V18.2254C6.78291 18.2488 6.78291 18.2739 6.79065 18.2973C6.80365 18.3036 6.81805 18.307 6.83265 18.307C6.84725 18.307 6.86163 18.3036 6.87463 18.2973L7.64723 18.0974V20.7525C7.64588 20.7633 7.64713 20.7742 7.65087 20.7845C7.65461 20.7948 7.66078 20.8041 7.66886 20.8118C7.67695 20.8195 7.68676 20.8254 7.69756 20.8289C7.70837 20.8325 7.71986 20.8337 7.73121 20.8324L9.1085 20.8324C9.12097 20.8363 9.13416 20.8375 9.14719 20.8362C9.16023 20.8348 9.17279 20.8308 9.18407 20.8244ZM106.281 11.3558H101.427V11.2279H106.281V11.3558ZM106.458 11.052V9.18055L107.818 9.98026C107.797 10.2061 107.689 10.4167 107.516 10.5721C107.228 10.8362 106.856 11.0021 106.458 11.0439V11.052ZM106.281 9.1086V10.1962C106.041 10.6077 105.644 10.9165 105.173 11.06H101.427V9.1086L106.281 9.1086ZM106.281 11.7317V12.0915H101.427V11.7317H106.281ZM92.5844 12.9072V12.2435L101.226 11.7317V12.0915L92.5844 12.9072ZM101.226 11.3478L92.5844 11.6837V11.5077L101.226 11.2279V11.3478ZM90.1406 7.89302V8.05302H89.0153C88.9936 8.05482 88.9733 8.06378 88.958 8.0784C88.9426 8.09303 88.9332 8.11237 88.9313 8.13297C88.9312 8.15498 88.9398 8.17624 88.9553 8.19252C88.9709 8.20881 88.9922 8.21893 89.0153 8.22093H90.1406V8.41285H89.0153C89.0042 8.41285 88.9933 8.41498 88.9831 8.419C88.9729 8.42302 88.9637 8.42886 88.9559 8.43628C88.9481 8.44371 88.9419 8.45255 88.9377 8.46225C88.9335 8.47195 88.9313 8.4823 88.9313 8.4928C88.9312 8.51481 88.9398 8.53607 88.9553 8.55235C88.9709 8.56864 88.9922 8.57876 89.0153 8.58076H90.1406V8.77278H89.0153C89.0042 8.77278 88.9933 8.77482 88.9831 8.77884C88.9729 8.78285 88.9637 8.78869 88.9559 8.79611C88.9481 8.80354 88.9419 8.81238 88.9377 8.82208C88.9335 8.83178 88.9313 8.84223 88.9313 8.85274C88.9312 8.87474 88.9398 8.896 88.9553 8.91228C88.9709 8.92857 88.9922 8.93869 89.0153 8.94069H90.1406V9.12461H89.0153C88.9922 9.12661 88.9709 9.13673 88.9553 9.15302C88.9398 9.1693 88.9312 9.19056 88.9313 9.21257C88.9313 9.23378 88.9401 9.25409 88.9559 9.26909C88.9716 9.28409 88.993 9.29252 89.0153 9.29252H90.1406V9.48444H89.0153C88.9922 9.48644 88.9709 9.49666 88.9553 9.51295C88.9398 9.52923 88.9312 9.55049 88.9313 9.5725C88.9313 9.583 88.9335 9.59335 88.9377 9.60305C88.9419 9.61276 88.9481 9.62159 88.9559 9.62902C88.9637 9.63645 88.9729 9.64228 88.9831 9.6463C88.9933 9.65032 89.0042 9.65245 89.0153 9.65245H90.1406V9.84437H89.0153C88.9922 9.84637 88.9709 9.8565 88.9553 9.87278C88.9398 9.88907 88.9312 9.91032 88.9313 9.93233C88.9313 9.95354 88.9401 9.97386 88.9559 9.98885C88.9716 10.0039 88.993 10.0123 89.0153 10.0123H90.1406V10.2042H89.0153C88.9922 10.2062 88.9709 10.2163 88.9553 10.2326C88.9398 10.2489 88.9312 10.2702 88.9313 10.2922C88.9332 10.3128 88.9426 10.3321 88.958 10.3467C88.9733 10.3614 88.9936 10.3704 89.0153 10.3722H90.1406V10.5641H89.0153C88.9936 10.5659 88.9733 10.5749 88.958 10.5895C88.9426 10.6041 88.9332 10.6235 88.9313 10.6441C88.9312 10.6661 88.9398 10.6874 88.9553 10.7036C88.9709 10.7199 88.9922 10.73 89.0153 10.732H90.1406V10.924H89.0153C88.993 10.924 88.9716 10.9324 88.9559 10.9474C88.9401 10.9624 88.9313 10.9827 88.9313 11.0039C88.9312 11.0259 88.9398 11.0472 88.9553 11.0635C88.9709 11.0798 88.9922 11.0899 89.0153 11.0919H90.1406V11.2838H89.0153C89.0042 11.2838 88.9933 11.2859 88.9831 11.29C88.9729 11.294 88.9637 11.2998 88.9559 11.3072C88.9481 11.3147 88.9419 11.3235 88.9377 11.3332C88.9335 11.3429 88.9313 11.3533 88.9313 11.3639C88.9312 11.3859 88.9398 11.4071 88.9553 11.4234C88.9709 11.4397 88.9922 11.4498 89.0153 11.4518H90.1406V11.6437H89.0153C88.993 11.6437 88.9716 11.6522 88.9559 11.6672C88.9401 11.6822 88.9313 11.7025 88.9313 11.7237C88.9312 11.7457 88.9398 11.7669 88.9553 11.7832C88.9709 11.7995 88.9922 11.8096 89.0153 11.8116H90.1406V11.9956H89.0153C88.9922 11.9976 88.9709 12.0078 88.9553 12.0241C88.9398 12.0403 88.9312 12.0615 88.9313 12.0835C88.9313 12.094 88.9335 12.1045 88.9377 12.1142C88.9419 12.1239 88.9481 12.1327 88.9559 12.1401C88.9637 12.1476 88.9729 12.1534 88.9831 12.1574C88.9933 12.1614 89.0042 12.1636 89.0153 12.1636H90.1406V12.3555H89.0153C88.9922 12.3575 88.9709 12.3676 88.9553 12.3839C88.9398 12.4002 88.9312 12.4214 88.9313 12.4434C88.9313 12.4647 88.9401 12.485 88.9559 12.5C88.9716 12.515 88.993 12.5234 89.0153 12.5234H90.1406V12.7153H89.0153C88.9922 12.7173 88.9709 12.7274 88.9553 12.7437C88.9398 12.76 88.9312 12.7813 88.9313 12.8033C88.9332 12.8239 88.9426 12.8432 88.958 12.8578C88.9733 12.8725 88.9936 12.8814 89.0153 12.8832H90.1406V13.0753H89.0153C88.9922 13.0773 88.9709 13.0874 88.9553 13.1037C88.9398 13.1199 88.9312 13.1412 88.9313 13.1632C88.9332 13.1838 88.9426 13.2031 88.958 13.2177C88.9733 13.2323 88.9936 13.2414 89.0153 13.2432H90.1406V13.4351H89.0153C88.9936 13.4369 88.9733 13.4458 88.958 13.4605C88.9426 13.4751 88.9332 13.4944 88.9313 13.515C88.9312 13.537 88.9398 13.5583 88.9553 13.5746C88.9709 13.5909 88.9922 13.601 89.0153 13.603H90.1406V13.7949H89.0153C89.0042 13.7949 88.9933 13.797 88.9831 13.8011C88.9729 13.8051 88.9637 13.8109 88.9559 13.8183C88.9481 13.8258 88.9419 13.8346 88.9377 13.8443C88.9335 13.854 88.9313 13.8645 88.9313 13.875C88.9312 13.897 88.9398 13.9181 88.9553 13.9344C88.9709 13.9507 88.9922 13.9609 89.0153 13.9629H90.1406V14.1228H88.587V13.1871C88.587 13.1638 88.5772 13.1414 88.5599 13.1249C88.5426 13.1084 88.5191 13.0992 88.4946 13.0992H82.616C82.593 13.1012 82.5716 13.1114 82.556 13.1277C82.5405 13.144 82.5319 13.1651 82.532 13.1871V14.1228H79.7943V13.9629H82.1289C82.1519 13.9609 82.1733 13.9507 82.1889 13.9344C82.2044 13.9181 82.213 13.897 82.2129 13.875C82.2129 13.8538 82.204 13.8333 82.1883 13.8183C82.1725 13.8033 82.1512 13.7949 82.1289 13.7949H79.7943V13.627H82.1289C82.1519 13.625 82.1733 13.6149 82.1889 13.5986C82.2044 13.5823 82.213 13.5611 82.2129 13.5391C82.211 13.5184 82.2015 13.4991 82.1862 13.4845C82.1708 13.4699 82.1505 13.4609 82.1289 13.4591H79.7943V13.2672H82.1289C82.1505 13.2654 82.1708 13.2563 82.1862 13.2417C82.2015 13.2271 82.211 13.2077 82.2129 13.1871C82.213 13.1651 82.2044 13.144 82.1889 13.1277C82.1733 13.1114 82.1519 13.1012 82.1289 13.0992H79.7943V12.9072H82.1289C82.1505 12.9054 82.1708 12.8965 82.1862 12.8819C82.2015 12.8672 82.211 12.8479 82.2129 12.8273C82.213 12.8053 82.2044 12.784 82.1889 12.7677C82.1733 12.7515 82.1519 12.7413 82.1289 12.7393H79.7943V12.5474H82.1289C82.1512 12.5474 82.1725 12.539 82.1883 12.524C82.204 12.509 82.2129 12.4887 82.2129 12.4675C82.213 12.4455 82.2044 12.4242 82.1889 12.4079C82.1733 12.3916 82.1519 12.3814 82.1289 12.3794H79.8027V12.1875H82.1289C82.1512 12.1875 82.1725 12.1791 82.1883 12.1641C82.204 12.1491 82.2129 12.1287 82.2129 12.1075C82.213 12.0855 82.2044 12.0643 82.1889 12.048C82.1733 12.0317 82.1519 12.0216 82.1289 12.0196H79.8027V11.8357H82.1373C82.1603 11.8337 82.1817 11.8235 82.1973 11.8072C82.2128 11.791 82.2214 11.7697 82.2213 11.7477C82.2213 11.7265 82.2124 11.7062 82.1967 11.6912C82.1809 11.6762 82.1596 11.6677 82.1373 11.6677H79.8027V11.4758H82.1373C82.1603 11.4738 82.1817 11.4636 82.1973 11.4473C82.2128 11.431 82.2214 11.4098 82.2213 11.3878C82.2213 11.3666 82.2124 11.3462 82.1967 11.3312C82.1809 11.3162 82.1596 11.3078 82.1373 11.3078H79.8027V11.1159H82.1373C82.1603 11.1139 82.1817 11.1038 82.1973 11.0875C82.2128 11.0712 82.2214 11.0499 82.2213 11.0279C82.2213 11.0067 82.2124 10.9864 82.1967 10.9714C82.1809 10.9564 82.1596 10.948 82.1373 10.948H79.8027V10.7561H82.1373C82.1603 10.7541 82.1817 10.7438 82.1973 10.7276C82.2128 10.7113 82.2214 10.6901 82.2213 10.6681C82.2194 10.6475 82.2099 10.6282 82.1946 10.6135C82.1792 10.5989 82.1589 10.5899 82.1373 10.5881H79.8027V10.3961H82.1373C82.1589 10.3943 82.1792 10.3854 82.1946 10.3707C82.2099 10.3561 82.2194 10.3368 82.2213 10.3162C82.2214 10.2942 82.2128 10.2729 82.1973 10.2566C82.1817 10.2403 82.1603 10.2302 82.1373 10.2282H79.8027V10.0363H82.1373C82.1596 10.0363 82.1809 10.0279 82.1967 10.0129C82.2124 9.99787 82.2213 9.97755 82.2213 9.95635C82.2214 9.93434 82.2128 9.91308 82.1973 9.8968C82.1817 9.88051 82.1603 9.87039 82.1373 9.86839H79.8027V9.62843H82.1373C82.1596 9.62843 82.1809 9.62 82.1967 9.60501C82.2124 9.59001 82.2213 9.56969 82.2213 9.54848C82.2214 9.52647 82.2128 9.50522 82.1973 9.48893C82.1817 9.47265 82.1603 9.46253 82.1373 9.46053H79.8027V9.2686H82.1373C82.1596 9.2686 82.1809 9.26017 82.1967 9.24517C82.2124 9.23018 82.2213 9.20976 82.2213 9.18855C82.2214 9.16654 82.2128 9.14539 82.1973 9.1291C82.1817 9.11282 82.1603 9.1026 82.1373 9.1006H79.8027V8.91668H82.1373C82.1603 8.91468 82.1817 8.90455 82.1973 8.88827C82.2128 8.87198 82.2214 8.85073 82.2213 8.82872C82.2213 8.80751 82.2124 8.78719 82.1967 8.7722C82.1809 8.7572 82.1596 8.74877 82.1373 8.74877H79.8027V8.55684H82.1373C82.1603 8.55484 82.1817 8.54462 82.1973 8.52834C82.2128 8.51205 82.2214 8.4909 82.2213 8.46889C82.2213 8.44768 82.2124 8.42726 82.1967 8.41227C82.1809 8.39727 82.1596 8.38884 82.1373 8.38884H79.8027V8.19691H82.1373C82.1603 8.19491 82.1817 8.18479 82.1973 8.16851C82.2128 8.15222 82.2214 8.13097 82.2213 8.10896C82.2194 8.08835 82.2099 8.06911 82.1946 8.05448C82.1792 8.03986 82.1589 8.03081 82.1373 8.02901H79.8027V7.8691L90.1406 7.89302ZM76.5527 13.595V13.0192L79.5843 12.5634V13.1152L76.5527 13.595ZM76.5527 11.9956V11.6517L79.5843 11.5398V11.7796L76.5527 11.9956ZM79.5843 10.3961C79.0994 10.9263 78.454 11.3007 77.7368 11.4678H76.5527V6.95742L79.5843 7.85309V10.3961ZM101.226 9.1086V10.1002C100.739 10.6135 100.101 10.9758 99.3951 11.1399L92.5844 11.3639V7.92504L101.226 9.1086ZM73.1767 6.02972V6.23765H70.842C70.8302 6.2376 70.8186 6.23988 70.8078 6.24439C70.7971 6.2489 70.7874 6.25552 70.7795 6.26382C70.7715 6.27211 70.7655 6.28187 70.7619 6.29252C70.7582 6.30316 70.7569 6.31446 70.7581 6.32561C70.7567 6.33642 70.758 6.34734 70.7617 6.35763C70.7654 6.36792 70.7716 6.37726 70.7797 6.38496C70.7877 6.39266 70.7976 6.39858 70.8084 6.40215C70.8192 6.40571 70.8307 6.40685 70.842 6.40556H73.1767V6.60549H70.842C70.8307 6.6042 70.8192 6.60544 70.8084 6.609C70.7976 6.61257 70.7877 6.61839 70.7797 6.62609C70.7716 6.63379 70.7654 6.64313 70.7617 6.65342C70.758 6.66371 70.7567 6.67463 70.7581 6.68544C70.7569 6.6966 70.7582 6.70789 70.7619 6.71854C70.7655 6.72918 70.7715 6.73894 70.7795 6.74724C70.7874 6.75553 70.7971 6.76215 70.8078 6.76666C70.8186 6.77117 70.8302 6.77355 70.842 6.7735H73.1767V6.96542H70.842C70.8197 6.96542 70.7984 6.97385 70.7826 6.98885C70.7669 7.00385 70.7581 7.02416 70.7581 7.04537C70.7569 7.05653 70.7582 7.06782 70.7619 7.07847C70.7655 7.08911 70.7715 7.09887 70.7795 7.10717C70.7874 7.11546 70.7971 7.12208 70.8078 7.12659C70.8186 7.1311 70.8302 7.13339 70.842 7.13333H73.1767V7.32525H70.842C70.8302 7.3252 70.8186 7.32748 70.8078 7.33199C70.7971 7.3365 70.7874 7.34312 70.7795 7.35142C70.7715 7.35971 70.7655 7.36947 70.7619 7.38012C70.7582 7.39076 70.7569 7.40206 70.7581 7.41321C70.7581 7.43442 70.7669 7.45474 70.7826 7.46973C70.7984 7.48473 70.8197 7.49316 70.842 7.49316H73.1767V7.68509H70.842C70.8302 7.68503 70.8186 7.68741 70.8078 7.69192C70.7971 7.69643 70.7874 7.70305 70.7795 7.71135C70.7715 7.71964 70.7655 7.7294 70.7619 7.74005C70.7582 7.75069 70.7569 7.76199 70.7581 7.77314C70.7567 7.78395 70.758 7.79487 70.7617 7.80516C70.7654 7.81545 70.7716 7.82479 70.7797 7.83249C70.7877 7.84019 70.7976 7.84601 70.8084 7.84958C70.8192 7.85314 70.8307 7.85438 70.842 7.85309H73.1767V8.05302H70.842C70.8307 8.05173 70.8192 8.05287 70.8084 8.05644C70.7976 8.06 70.7877 8.06592 70.7797 8.07362C70.7716 8.08132 70.7654 8.09066 70.7617 8.10095C70.758 8.11124 70.7567 8.12216 70.7581 8.13297C70.7569 8.14413 70.7582 8.15542 70.7619 8.16607C70.7655 8.17671 70.7715 8.18647 70.7795 8.19477C70.7874 8.20306 70.7971 8.20968 70.8078 8.21419C70.8186 8.2187 70.8302 8.22099 70.842 8.22093H73.1767V8.41285H70.842C70.8197 8.41285 70.7984 8.42128 70.7826 8.43628C70.7669 8.45128 70.7581 8.4716 70.7581 8.4928C70.7569 8.50396 70.7582 8.51525 70.7619 8.5259C70.7655 8.53654 70.7715 8.5463 70.7795 8.5546C70.7874 8.56289 70.7971 8.56952 70.8078 8.57403C70.8186 8.57854 70.8302 8.58082 70.842 8.58076H73.1767V8.77278H70.842C70.8302 8.77273 70.8186 8.77501 70.8078 8.77952C70.7971 8.78403 70.7874 8.79065 70.7795 8.79895C70.7715 8.80724 70.7655 8.817 70.7619 8.82765C70.7582 8.83829 70.7569 8.84959 70.7581 8.86074C70.7567 8.87155 70.758 8.88247 70.7617 8.89276C70.7654 8.90305 70.7716 8.91239 70.7797 8.92009C70.7877 8.92779 70.7976 8.93361 70.8084 8.93718C70.8192 8.94074 70.8307 8.94198 70.842 8.94069H73.1767V9.13262H70.842C70.8175 9.13262 70.794 9.14189 70.7767 9.15839C70.7594 9.17488 70.7497 9.19724 70.7497 9.22057C70.7497 9.2439 70.7594 9.26626 70.7767 9.28276C70.794 9.29925 70.8175 9.30853 70.842 9.30853H73.1767V9.50045H70.842C70.8307 9.49917 70.8192 9.5004 70.8084 9.50397C70.7976 9.50753 70.7877 9.51335 70.7797 9.52105C70.7716 9.52875 70.7654 9.5381 70.7617 9.54839C70.758 9.55867 70.7567 9.56959 70.7581 9.5804C70.7569 9.59156 70.7582 9.60285 70.7619 9.6135C70.7655 9.62414 70.7715 9.6339 70.7795 9.6422C70.7874 9.65049 70.7971 9.65712 70.8078 9.66163C70.8186 9.66614 70.8302 9.66852 70.842 9.66846H73.1767V9.86038H70.842C70.8302 9.86033 70.8186 9.86261 70.8078 9.86712C70.7971 9.87163 70.7874 9.87825 70.7795 9.88655C70.7715 9.89484 70.7655 9.9046 70.7619 9.91525C70.7582 9.92589 70.7569 9.93719 70.7581 9.94834C70.7581 9.96955 70.7669 9.98987 70.7826 10.0049C70.7984 10.0199 70.8197 10.0283 70.842 10.0283H73.1767V10.2202H70.842C70.8302 10.2202 70.8186 10.2224 70.8078 10.227C70.7971 10.2315 70.7874 10.2381 70.7795 10.2464C70.7715 10.2547 70.7655 10.2644 70.7619 10.2751C70.7582 10.2857 70.7569 10.297 70.7581 10.3082C70.7567 10.319 70.758 10.33 70.7617 10.3403C70.7654 10.3506 70.7716 10.3599 70.7797 10.3676C70.7877 10.3753 70.7976 10.3811 70.8084 10.3847C70.8192 10.3883 70.8307 10.3894 70.842 10.3881H73.1767V10.5881H70.842C70.8307 10.5868 70.8192 10.588 70.8084 10.5916C70.7976 10.5951 70.7877 10.601 70.7797 10.6087C70.7716 10.6164 70.7654 10.6257 70.7617 10.636C70.758 10.6463 70.7567 10.6573 70.7581 10.6681C70.7569 10.6793 70.7582 10.6905 70.7619 10.7011C70.7655 10.7117 70.7715 10.7216 70.7795 10.7299C70.7874 10.7382 70.7971 10.7448 70.8078 10.7493C70.8186 10.7538 70.8302 10.7561 70.842 10.7561H73.1767V10.948H70.842C70.8307 10.9467 70.8192 10.9478 70.8084 10.9514C70.7976 10.955 70.7877 10.9609 70.7797 10.9686C70.7716 10.9763 70.7654 10.9856 70.7617 10.9959C70.758 11.0062 70.7567 11.0171 70.7581 11.0279C70.7569 11.0391 70.7582 11.0504 70.7619 11.061C70.7655 11.0717 70.7715 11.0814 70.7795 11.0897C70.7874 11.098 70.7971 11.1046 70.8078 11.1092C70.8186 11.1137 70.8302 11.1159 70.842 11.1159H73.1767V11.3078H70.842C70.8302 11.3078 70.8186 11.31 70.8078 11.3146C70.7971 11.3191 70.7874 11.3257 70.7795 11.334C70.7715 11.3423 70.7655 11.3521 70.7619 11.3628C70.7582 11.3734 70.7569 11.3846 70.7581 11.3958C70.7581 11.417 70.7669 11.4374 70.7826 11.4524C70.7984 11.4674 70.8197 11.4758 70.842 11.4758H73.1767V11.6677H70.842C70.8302 11.6677 70.8186 11.67 70.8078 11.6745C70.7971 11.679 70.7874 11.6856 70.7795 11.6939C70.7715 11.7022 70.7655 11.712 70.7619 11.7226C70.7582 11.7333 70.7569 11.7445 70.7581 11.7557C70.7567 11.7665 70.758 11.7774 70.7617 11.7877C70.7654 11.798 70.7716 11.8074 70.7797 11.8151C70.7877 11.8228 70.7976 11.8286 70.8084 11.8321C70.8192 11.8357 70.8307 11.8369 70.842 11.8357H73.1767V12.0356H70.842C70.8307 12.0343 70.8192 12.0354 70.8084 12.039C70.7976 12.0426 70.7877 12.0485 70.7797 12.0562C70.7716 12.0639 70.7654 12.0732 70.7617 12.0835C70.758 12.0938 70.7567 12.1047 70.7581 12.1155C70.7569 12.1267 70.7582 12.138 70.7619 12.1486C70.7655 12.1593 70.7715 12.169 70.7795 12.1773C70.7874 12.1856 70.7971 12.1922 70.8078 12.1968C70.8186 12.2013 70.8302 12.2035 70.842 12.2035H73.1767V12.3954H70.842C70.8197 12.3954 70.7984 12.4038 70.7826 12.4188C70.7669 12.4338 70.7581 12.4543 70.7581 12.4755C70.7569 12.4866 70.7582 12.4978 70.7619 12.5085C70.7655 12.5191 70.7715 12.529 70.7795 12.5373C70.7874 12.5456 70.7971 12.5521 70.8078 12.5566C70.8186 12.5611 70.8302 12.5635 70.842 12.5634H73.1767V12.7553H70.842C70.8302 12.7553 70.8186 12.7576 70.8078 12.7621C70.7971 12.7666 70.7874 12.7732 70.7795 12.7815C70.7715 12.7898 70.7655 12.7996 70.7619 12.8102C70.7582 12.8209 70.7569 12.8321 70.7581 12.8433C70.7581 12.8645 70.7669 12.8848 70.7826 12.8998C70.7984 12.9148 70.8197 12.9233 70.842 12.9233H73.1767V13.1152H70.842C70.8302 13.1151 70.8186 13.1174 70.8078 13.1219C70.7971 13.1264 70.7874 13.133 70.7795 13.1413C70.7715 13.1496 70.7655 13.1595 70.7619 13.1701C70.7582 13.1808 70.7569 13.192 70.7581 13.2031C70.7567 13.2139 70.758 13.225 70.7617 13.2353C70.7654 13.2455 70.7716 13.2549 70.7797 13.2626C70.7877 13.2703 70.7976 13.2761 70.8084 13.2797C70.8192 13.2832 70.8307 13.2844 70.842 13.2831H73.1767V13.483H70.842C70.8307 13.4817 70.8192 13.483 70.8084 13.4865C70.7976 13.4901 70.7877 13.4959 70.7797 13.5036C70.7716 13.5113 70.7654 13.5207 70.7617 13.5309C70.758 13.5412 70.7567 13.5523 70.7581 13.5631C70.7569 13.5742 70.7582 13.5854 70.7619 13.5961C70.7655 13.6067 70.7715 13.6166 70.7795 13.6249C70.7874 13.6332 70.7971 13.6398 70.8078 13.6443C70.8186 13.6488 70.8302 13.6511 70.842 13.651H73.1767V13.8429H70.842C70.8197 13.8429 70.7984 13.8514 70.7826 13.8664C70.7669 13.8814 70.7581 13.9017 70.7581 13.9229C70.7569 13.9341 70.7582 13.9453 70.7619 13.956C70.7655 13.9666 70.7715 13.9764 70.7795 13.9847C70.7874 13.993 70.7971 13.9996 70.8078 14.0041C70.8186 14.0086 70.8302 14.0109 70.842 14.0109H73.1767V14.2028H70.842C70.8302 14.2027 70.8186 14.205 70.8078 14.2095C70.7971 14.214 70.7874 14.2206 70.7795 14.2289C70.7715 14.2372 70.7655 14.2471 70.7619 14.2577C70.7582 14.2684 70.7569 14.2796 70.7581 14.2907C70.7567 14.3015 70.758 14.3126 70.7617 14.3229C70.7654 14.3331 70.7716 14.3425 70.7797 14.3502C70.7877 14.3579 70.7976 14.3637 70.8084 14.3673C70.8192 14.3708 70.8307 14.3721 70.842 14.3708H73.1767V14.5627H70.842C70.8175 14.5627 70.794 14.572 70.7767 14.5885C70.7594 14.605 70.7497 14.6273 70.7497 14.6507C70.7497 14.674 70.7594 14.6964 70.7767 14.7129C70.794 14.7293 70.8175 14.7386 70.842 14.7386H73.1767V14.9305H70.842C70.8307 14.9293 70.8192 14.9304 70.8084 14.934C70.7976 14.9375 70.7877 14.9434 70.7797 14.9511C70.7716 14.9588 70.7654 14.9682 70.7617 14.9785C70.758 14.9888 70.7567 14.9997 70.7581 15.0105C70.7569 15.0217 70.7582 15.0329 70.7619 15.0436C70.7655 15.0542 70.7715 15.064 70.7795 15.0723C70.7874 15.0806 70.7971 15.0872 70.8078 15.0917C70.8186 15.0962 70.8302 15.0985 70.842 15.0985H73.1767V15.2904H70.842C70.8302 15.2903 70.8186 15.2927 70.8078 15.2972C70.7971 15.3017 70.7874 15.3082 70.7795 15.3165C70.7715 15.3248 70.7655 15.3347 70.7619 15.3453C70.7582 15.356 70.7569 15.3672 70.7581 15.3783C70.7581 15.3995 70.7669 15.42 70.7826 15.435C70.7984 15.45 70.8197 15.4584 70.842 15.4584H73.1767V15.6503H70.842C70.8302 15.6503 70.8186 15.6525 70.8078 15.657C70.7971 15.6616 70.7874 15.6682 70.7795 15.6765C70.7715 15.6848 70.7655 15.6945 70.7619 15.7052C70.7582 15.7158 70.7569 15.7271 70.7581 15.7383C70.7567 15.7491 70.758 15.76 70.7617 15.7703C70.7654 15.7806 70.7716 15.7899 70.7797 15.7976C70.7877 15.8053 70.7976 15.8112 70.8084 15.8148C70.8192 15.8184 70.8307 15.8195 70.842 15.8182H73.1767V16.0342H70.3717V14.0988C70.3718 14.0768 70.3633 14.0555 70.3477 14.0393C70.3322 14.023 70.3108 14.0129 70.2878 14.0109L53.9537 14.0109V13.2752L70.313 13.2752C70.336 13.2732 70.3574 13.263 70.3729 13.2467C70.3885 13.2304 70.397 13.2091 70.3969 13.1871V12.5154C70.397 12.4934 70.3885 12.4721 70.3729 12.4558C70.3574 12.4396 70.336 12.4294 70.313 12.4274L53.9537 12.4274V11.9716L70.313 11.9716C70.3352 11.9716 70.3566 11.9632 70.3723 11.9482C70.3881 11.9332 70.3969 11.9128 70.3969 11.8916V9.62843C70.182 10.1491 69.8423 10.6148 69.4049 10.9883C68.9675 11.3618 68.4444 11.6327 67.8775 11.7796L53.9537 11.7796V6.0057L73.1767 6.02972ZM16.9102 16.0342V6.02972H17.4981V16.0262L16.9102 16.0342ZM34.7979 6.02972V7.06939C34.7979 7.09272 34.8076 7.11508 34.825 7.13157C34.8423 7.14807 34.8658 7.15734 34.8903 7.15734H35.7301C35.7531 7.15534 35.7745 7.14512 35.79 7.12884C35.8056 7.11255 35.8142 7.0914 35.8141 7.06939V6.02972H36.3179V7.06939C36.3168 7.08054 36.3181 7.09174 36.3218 7.10238C36.3254 7.11303 36.3314 7.12289 36.3394 7.13118C36.3473 7.13948 36.3569 7.1461 36.3677 7.15061C36.3785 7.15512 36.3902 7.1574 36.4019 7.15734H37.2417C37.2535 7.1574 37.2651 7.15512 37.2759 7.15061C37.2867 7.1461 37.2964 7.13948 37.3043 7.13118C37.3122 7.12289 37.3182 7.11303 37.3219 7.10238C37.3256 7.09174 37.3269 7.08054 37.3257 7.06939V6.02972H37.7708V7.06939C37.7707 7.0914 37.7793 7.11255 37.7948 7.12884C37.8104 7.14512 37.8317 7.15534 37.8548 7.15734H38.6946C38.7191 7.15734 38.7426 7.14807 38.7599 7.13157C38.7772 7.11508 38.7869 7.09272 38.7869 7.06939V6.02972H43.3806V11.8036L29.5996 11.8036C29.5878 11.8036 29.5761 11.8059 29.5653 11.8104C29.5546 11.8149 29.5449 11.8215 29.537 11.8298C29.5291 11.8381 29.5231 11.848 29.5194 11.8586C29.5157 11.8692 29.5144 11.8804 29.5156 11.8916C29.5142 11.9024 29.5155 11.9134 29.5192 11.9237C29.523 11.934 29.5291 11.9433 29.5372 11.951C29.5453 11.9587 29.5551 11.9646 29.5659 11.9681C29.5767 11.9717 29.5882 11.9729 29.5996 11.9716L43.4562 11.9716V12.4274L29.5996 12.4274C29.5878 12.4274 29.5761 12.4297 29.5653 12.4342C29.5546 12.4387 29.5449 12.4453 29.537 12.4536C29.5291 12.4619 29.5231 12.4717 29.5194 12.4823C29.5157 12.4929 29.5144 12.5042 29.5156 12.5154V13.1871C29.5144 13.1983 29.5157 13.2096 29.5194 13.2202C29.5231 13.2309 29.5291 13.2406 29.537 13.2489C29.5449 13.2572 29.5546 13.2638 29.5653 13.2683C29.5761 13.2729 29.5878 13.2752 29.5996 13.2752L43.4562 13.2752V14.0109L29.5996 14.0109C29.5878 14.0108 29.5761 14.0131 29.5653 14.0176C29.5546 14.0221 29.5449 14.0287 29.537 14.037C29.5291 14.0453 29.5231 14.0552 29.5194 14.0658C29.5157 14.0765 29.5144 14.0877 29.5156 14.0988V16.0262H22.1925V15.8102H29.1461C29.1578 15.8113 29.1696 15.8101 29.1808 15.8066C29.192 15.8031 29.2022 15.7974 29.211 15.7898C29.2197 15.7823 29.2266 15.7731 29.2314 15.7629C29.2361 15.7526 29.2385 15.7415 29.2385 15.7303C29.2385 15.7069 29.2287 15.6846 29.2114 15.6681C29.1941 15.6516 29.1706 15.6423 29.1461 15.6423H22.1925V15.4504H29.1461C29.1692 15.4505 29.1915 15.4422 29.2086 15.4274C29.2257 15.4126 29.2364 15.3923 29.2385 15.3704C29.2385 15.3471 29.2287 15.3246 29.2114 15.3081C29.1941 15.2916 29.1706 15.2824 29.1461 15.2824H22.1925V15.0905H29.1461C29.1706 15.0905 29.1941 15.0812 29.2114 15.0647C29.2287 15.0482 29.2385 15.0258 29.2385 15.0025C29.2385 14.9913 29.2361 14.9802 29.2314 14.97C29.2266 14.9597 29.2197 14.9505 29.211 14.9429C29.2022 14.9354 29.192 14.9297 29.1808 14.9262C29.1696 14.9226 29.1578 14.9214 29.1461 14.9225H22.1925V14.7306H29.1461C29.1706 14.7306 29.1941 14.7213 29.2114 14.7048C29.2287 14.6883 29.2385 14.666 29.2385 14.6427C29.2385 14.6193 29.2287 14.597 29.2114 14.5805C29.1941 14.564 29.1706 14.5547 29.1461 14.5547H22.1925V14.3628H29.1461C29.1578 14.3639 29.1696 14.3626 29.1808 14.3591C29.192 14.3556 29.2022 14.3499 29.211 14.3424C29.2197 14.3348 29.2266 14.3256 29.2314 14.3153C29.2361 14.3051 29.2385 14.2939 29.2385 14.2827C29.2385 14.2594 29.2287 14.237 29.2114 14.2205C29.1941 14.204 29.1706 14.1948 29.1461 14.1948H22.1925V14.0029H29.1461C29.1706 14.0029 29.1941 13.9936 29.2114 13.9771C29.2287 13.9606 29.2385 13.9382 29.2385 13.9149C29.2364 13.893 29.2257 13.8726 29.2086 13.8578C29.1915 13.843 29.1692 13.8349 29.1461 13.8349H22.1925V13.627H29.1461C29.1706 13.627 29.1941 13.6177 29.2114 13.6012C29.2287 13.5847 29.2385 13.5624 29.2385 13.5391C29.2385 13.5278 29.2361 13.5167 29.2314 13.5064C29.2266 13.4962 29.2197 13.487 29.211 13.4795C29.2022 13.472 29.192 13.4662 29.1808 13.4627C29.1696 13.4592 29.1578 13.458 29.1461 13.4591H22.1925V13.2592H29.1461C29.1578 13.2603 29.1696 13.2591 29.1808 13.2556C29.192 13.252 29.2022 13.2463 29.211 13.2388C29.2197 13.2312 29.2266 13.222 29.2314 13.2117C29.2361 13.2015 29.2385 13.1903 29.2385 13.1791C29.2385 13.1558 29.2287 13.1334 29.2114 13.1169C29.1941 13.1004 29.1706 13.0912 29.1461 13.0912H22.1925V12.8992H29.1461C29.1692 12.8993 29.1915 12.8912 29.2086 12.8764C29.2257 12.8616 29.2364 12.8412 29.2385 12.8193C29.2385 12.796 29.2287 12.7736 29.2114 12.7571C29.1941 12.7406 29.1706 12.7313 29.1461 12.7313H22.1925V12.5394H29.1461C29.1706 12.5394 29.1941 12.5301 29.2114 12.5136C29.2287 12.4971 29.2385 12.4748 29.2385 12.4515C29.2364 12.4295 29.2257 12.4091 29.2086 12.3943C29.1915 12.3795 29.1692 12.3714 29.1461 12.3715H22.1925V12.1795H29.1461C29.1706 12.1795 29.1941 12.1703 29.2114 12.1538C29.2287 12.1373 29.2385 12.1149 29.2385 12.0915C29.2385 12.0803 29.2361 12.0693 29.2314 12.059C29.2266 12.0487 29.2197 12.0395 29.211 12.032C29.2022 12.0244 29.192 12.0187 29.1808 12.0152C29.1696 12.0117 29.1578 12.0104 29.1461 12.0116H22.1925V11.8116H29.1461C29.1578 11.8128 29.1696 11.8115 29.1808 11.808C29.192 11.8045 29.2022 11.7988 29.211 11.7912C29.2197 11.7837 29.2266 11.7746 29.2314 11.7643C29.2361 11.754 29.2385 11.7429 29.2385 11.7317C29.2385 11.7084 29.2287 11.686 29.2114 11.6695C29.1941 11.653 29.1706 11.6437 29.1461 11.6437H22.1925V11.4518H29.1461C29.1692 11.4519 29.1915 11.4437 29.2086 11.4289C29.2257 11.4141 29.2364 11.3938 29.2385 11.3719C29.2385 11.3485 29.2287 11.3261 29.2114 11.3096C29.1941 11.2931 29.1706 11.2838 29.1461 11.2838H22.1925V11.0919H29.1461C29.1706 11.0919 29.1941 11.0826 29.2114 11.0661C29.2287 11.0496 29.2385 11.0273 29.2385 11.0039C29.2385 10.9927 29.2361 10.9817 29.2314 10.9714C29.2266 10.9611 29.2197 10.9519 29.211 10.9444C29.2022 10.9368 29.192 10.9311 29.1808 10.9276C29.1696 10.9241 29.1578 10.9228 29.1461 10.924H22.1925V10.732H29.1461C29.1706 10.732 29.1941 10.7228 29.2114 10.7063C29.2287 10.6898 29.2385 10.6674 29.2385 10.6441C29.2385 10.6329 29.2361 10.6217 29.2314 10.6115C29.2266 10.6012 29.2197 10.5921 29.211 10.5845C29.2022 10.577 29.192 10.5713 29.1808 10.5677C29.1696 10.5642 29.1578 10.563 29.1461 10.5641H22.1925V10.3642H29.1461C29.1578 10.3653 29.1696 10.364 29.1808 10.3605C29.192 10.357 29.2022 10.3513 29.211 10.3438C29.2197 10.3363 29.2266 10.327 29.2314 10.3168C29.2361 10.3065 29.2385 10.2954 29.2385 10.2842C29.2385 10.2608 29.2287 10.2385 29.2114 10.222C29.1941 10.2055 29.1706 10.1962 29.1461 10.1962H22.1925V10.0043H29.1461C29.1692 10.0044 29.1915 9.99624 29.2086 9.98143C29.2257 9.96663 29.2364 9.94624 29.2385 9.92433C29.2385 9.90099 29.2287 9.87864 29.2114 9.86214C29.1941 9.84564 29.1706 9.83637 29.1461 9.83637H22.1925V9.62843H29.1461C29.1706 9.62843 29.1941 9.61916 29.2114 9.60266C29.2287 9.58617 29.2385 9.56381 29.2385 9.54048C29.2385 9.52927 29.2361 9.51814 29.2314 9.50787C29.2266 9.49761 29.2197 9.48847 29.211 9.48093C29.2022 9.47339 29.192 9.46765 29.1808 9.46414C29.1696 9.46062 29.1578 9.4594 29.1461 9.46053H22.1925V9.2686H29.1461C29.1706 9.2686 29.1941 9.25933 29.2114 9.24283C29.2287 9.22633 29.2385 9.20388 29.2385 9.18055C29.2385 9.15722 29.2287 9.13486 29.2114 9.11836C29.1941 9.10187 29.1706 9.09259 29.1461 9.09259H22.1925V8.90067H29.1461C29.1578 8.90179 29.1696 8.90057 29.1808 8.89706C29.192 8.89354 29.2022 8.88781 29.211 8.88026C29.2197 8.87272 29.2266 8.86358 29.2314 8.85332C29.2361 8.84306 29.2385 8.83193 29.2385 8.82072C29.2385 8.79738 29.2287 8.77503 29.2114 8.75853C29.1941 8.74203 29.1706 8.73276 29.1461 8.73276H22.1925V8.54083H29.1461C29.1706 8.54083 29.1941 8.53156 29.2114 8.51506C29.2287 8.49857 29.2385 8.47621 29.2385 8.45288C29.2364 8.43096 29.2257 8.41057 29.2086 8.39577C29.1915 8.38096 29.1692 8.37283 29.1461 8.37293H22.1925V8.1809H29.1461C29.1706 8.1809 29.1941 8.17173 29.2114 8.15523C29.2287 8.13873 29.2385 8.11628 29.2385 8.09295C29.2385 8.08174 29.2361 8.0707 29.2314 8.06044C29.2266 8.05018 29.2197 8.04094 29.211 8.0334C29.2022 8.02586 29.192 8.02012 29.1808 8.01661C29.1696 8.01309 29.1578 8.01187 29.1461 8.013H22.1925V7.81307L29.1461 7.81307C29.1578 7.81419 29.1696 7.81297 29.1808 7.80946C29.192 7.80594 29.2022 7.80021 29.211 7.79266C29.2197 7.78512 29.2266 7.77598 29.2314 7.76572C29.2361 7.75546 29.2385 7.74433 29.2385 7.73312C29.2385 7.70978 29.2287 7.68743 29.2114 7.67093C29.1941 7.65443 29.1706 7.64516 29.1461 7.64516L22.1925 7.64516V7.45323L29.1461 7.45323C29.1692 7.45333 29.1915 7.4451 29.2086 7.43029C29.2257 7.41549 29.2364 7.3952 29.2385 7.37328C29.2385 7.34995 29.2287 7.3275 29.2114 7.311C29.1941 7.2945 29.1706 7.28523 29.1461 7.28523L22.1925 7.28523V7.0933L29.1461 7.0933C29.1706 7.0933 29.1941 7.08403 29.2114 7.06753C29.2287 7.05104 29.2385 7.02868 29.2385 7.00535C29.2364 6.98343 29.2257 6.96304 29.2086 6.94824C29.1915 6.93343 29.1692 6.9253 29.1461 6.9254L22.1925 6.9254V6.73347L29.1461 6.73347C29.1706 6.73347 29.1941 6.7242 29.2114 6.7077C29.2287 6.6912 29.2385 6.66885 29.2385 6.64552C29.2385 6.63431 29.2361 6.62317 29.2314 6.61291C29.2266 6.60265 29.2197 6.59351 29.211 6.58597C29.2022 6.57843 29.192 6.57269 29.1808 6.56918C29.1696 6.56566 29.1578 6.56444 29.1461 6.56556L22.1925 6.56556V6.36563L29.1461 6.36563C29.1578 6.36676 29.1696 6.36544 29.1808 6.36193C29.192 6.35841 29.2022 6.35277 29.211 6.34523C29.2197 6.33769 29.2266 6.32845 29.2314 6.31819C29.2361 6.30793 29.2385 6.2968 29.2385 6.28559C29.2385 6.26225 29.2287 6.2399 29.2114 6.2234C29.1941 6.2069 29.1706 6.19763 29.1461 6.19763L22.1925 6.19763V5.98969L34.7979 6.02972ZM6.92502 4.71017V3.91046L14.4328 5.8378C12.6776 5.72584 8.40306 5.4699 6.92502 4.71017ZM7.82361 3.53461V1.31939H9.0497L10.8721 4.24637C9.83073 4.03045 8.47864 3.68656 7.84039 3.53461H7.82361ZM4.9011 7.59713C5.19509 7.46684 5.47616 7.31164 5.7409 7.13333H7.22733L7.18535 7.50117V7.59713H4.9011ZM6.92502 9.62843V8.94069L14.7267 10.94C10.9225 11.3478 8.36947 10.916 6.92502 9.62843ZM5.73249 14.8426C5.46558 14.6699 5.18477 14.5174 4.89269 14.3867H7.16016L7.21054 14.8426H5.73249ZM15.2138 15.9781L12.0226 15.7623H14.8359C14.8476 15.7634 14.8594 15.7621 14.8706 15.7586C14.8818 15.7551 14.8921 15.7494 14.9008 15.7419C14.9095 15.7343 14.9165 15.7251 14.9212 15.7148C14.9259 15.7046 14.9283 15.6934 14.9283 15.6822C14.9283 15.6589 14.9185 15.6365 14.9012 15.62C14.8839 15.6035 14.8604 15.5943 14.8359 15.5943H9.51158L8.41986 15.5223V15.4024H14.8359C14.859 15.4024 14.8813 15.3943 14.8984 15.3795C14.9155 15.3647 14.9262 15.3443 14.9283 15.3224C14.9283 15.2991 14.9185 15.2767 14.9012 15.2602C14.8839 15.2437 14.8604 15.2344 14.8359 15.2344H8.41986V15.0425H14.8359C14.8604 15.0425 14.8839 15.0332 14.9012 15.0167C14.9185 15.0002 14.9283 14.9779 14.9283 14.9546C14.9283 14.9434 14.9259 14.9322 14.9212 14.922C14.9165 14.9117 14.9095 14.9025 14.9008 14.8949C14.8921 14.8874 14.8818 14.8817 14.8706 14.8782C14.8594 14.8747 14.8476 14.8735 14.8359 14.8746H8.41986V14.6826H14.8359C14.8604 14.6826 14.8839 14.6734 14.9012 14.6569C14.9185 14.6404 14.9283 14.618 14.9283 14.5946C14.9283 14.5713 14.9185 14.5489 14.9012 14.5324C14.8839 14.5159 14.8604 14.5067 14.8359 14.5067H8.41986V14.3148H14.8359C14.8476 14.3159 14.8594 14.3147 14.8706 14.3111C14.8818 14.3076 14.8921 14.3019 14.9008 14.2943C14.9095 14.2868 14.9165 14.2777 14.9212 14.2674C14.9259 14.2571 14.9283 14.246 14.9283 14.2348C14.9283 14.2115 14.9185 14.1891 14.9012 14.1726C14.8839 14.1561 14.8604 14.1468 14.8359 14.1468H8.41986V13.9549H14.8359C14.8604 13.9549 14.8839 13.9456 14.9012 13.9291C14.9185 13.9126 14.9283 13.8903 14.9283 13.867C14.9262 13.845 14.9155 13.8247 14.8984 13.8099C14.8813 13.795 14.859 13.7868 14.8359 13.7869H8.41986V13.627H14.8359C14.8604 13.627 14.8839 13.6177 14.9012 13.6012C14.9185 13.5847 14.9283 13.5624 14.9283 13.5391C14.9283 13.5278 14.9259 13.5167 14.9212 13.5064C14.9165 13.4962 14.9095 13.487 14.9008 13.4795C14.8921 13.472 14.8818 13.4662 14.8706 13.4627C14.8594 13.4592 14.8476 13.458 14.8359 13.4591H8.41986V13.2592H14.8359C14.8476 13.2603 14.8594 13.2591 14.8706 13.2556C14.8818 13.252 14.8921 13.2463 14.9008 13.2388C14.9095 13.2312 14.9165 13.222 14.9212 13.2117C14.9259 13.2015 14.9283 13.1903 14.9283 13.1791C14.9283 13.1558 14.9185 13.1334 14.9012 13.1169C14.8839 13.1004 14.8604 13.0912 14.8359 13.0912H8.41986V12.8992H14.8359C14.859 12.8993 14.8813 12.8912 14.8984 12.8764C14.9155 12.8616 14.9262 12.8412 14.9283 12.8193C14.9283 12.796 14.9185 12.7736 14.9012 12.7571C14.8839 12.7406 14.8604 12.7313 14.8359 12.7313H8.82297L9.57878 12.5394H14.8359C14.8604 12.5394 14.8839 12.5301 14.9012 12.5136C14.9185 12.4971 14.9283 12.4748 14.9283 12.4515C14.9262 12.4295 14.9155 12.4091 14.8984 12.3943C14.8813 12.3795 14.859 12.3714 14.8359 12.3715H10.2842L11.04 12.1795H14.8863C14.9108 12.1795 14.9343 12.1703 14.9516 12.1538C14.9689 12.1373 14.9787 12.1149 14.9787 12.0915C14.9787 12.0803 14.9763 12.0693 14.9716 12.059C14.9668 12.0487 14.9599 12.0395 14.9512 12.032C14.9425 12.0244 14.9322 12.0187 14.921 12.0152C14.9098 12.0117 14.898 12.0104 14.8863 12.0116H11.6951L12.4509 11.8116H14.8863C14.898 11.8128 14.9098 11.8115 14.921 11.808C14.9322 11.8045 14.9425 11.7988 14.9512 11.7912C14.9599 11.7837 14.9668 11.7746 14.9716 11.7643C14.9763 11.754 14.9787 11.7429 14.9787 11.7317C14.9787 11.7084 14.9689 11.686 14.9516 11.6695C14.9343 11.653 14.9108 11.6437 14.8863 11.6437H13.1059L13.8533 11.4518H14.8863C14.9094 11.4519 14.9317 11.4437 14.9488 11.4289C14.9659 11.4141 14.9766 11.3938 14.9787 11.3719C14.9787 11.3485 14.9689 11.3261 14.9516 11.3096C14.9343 11.2931 14.9108 11.2838 14.8863 11.2838H14.4832L15.2558 11.0839C15.267 11.082 15.2776 11.078 15.287 11.0721C15.2965 11.0662 15.3046 11.0586 15.3109 11.0496C15.3171 11.0406 15.3214 11.0305 15.3235 11.0199C15.3256 11.0093 15.3254 10.9984 15.323 10.9879L14.5588 10.796H14.9283C14.9528 10.796 14.9763 10.7867 14.9936 10.7702C15.0109 10.7537 15.0207 10.7314 15.0207 10.708C15.0207 10.6968 15.0183 10.6858 15.0136 10.6755C15.0088 10.6653 15.0019 10.656 14.9932 10.6485C14.9845 10.6409 14.9742 10.6352 14.963 10.6317C14.9518 10.6282 14.94 10.627 14.9283 10.6281H13.9037L13.1479 10.4281H14.9283C14.94 10.4293 14.9518 10.4281 14.963 10.4245C14.9742 10.421 14.9845 10.4153 14.9932 10.4077C15.0019 10.4002 15.0088 10.391 15.0136 10.3807C15.0183 10.3704 15.0207 10.3594 15.0207 10.3482C15.0207 10.3249 15.0109 10.3025 14.9936 10.286C14.9763 10.2695 14.9528 10.2602 14.9283 10.2602H12.4929L11.7371 10.0683H14.9283C14.9514 10.0684 14.9737 10.0602 14.9908 10.0454C15.0079 10.0306 15.0186 10.0102 15.0207 9.98827C15.0207 9.96494 15.0109 9.94258 14.9936 9.92608C14.9763 9.90959 14.9528 9.90031 14.9283 9.90031H11.082L10.3262 9.70839H14.9283C14.9528 9.70839 14.9763 9.69911 14.9936 9.68261C15.0109 9.66612 15.0207 9.64376 15.0207 9.62043C15.0207 9.60922 15.0183 9.59809 15.0136 9.58782C15.0088 9.57756 15.0019 9.56842 14.9932 9.56088C14.9845 9.55334 14.9742 9.5476 14.963 9.54409C14.9518 9.54058 14.94 9.53936 14.9283 9.54048H9.67115L8.91533 9.34855H14.9283C14.9528 9.34855 14.9763 9.33928 14.9936 9.32278C15.0109 9.30628 15.0207 9.28393 15.0207 9.2606C15.0207 9.23727 15.0109 9.21481 14.9936 9.19831C14.9763 9.18182 14.9528 9.17264 14.9283 9.17264L8.51225 9.17264V8.98062L14.9283 8.98062C14.94 8.98174 14.9518 8.98052 14.963 8.97701C14.9742 8.97349 14.9845 8.96785 14.9932 8.96031C15.0019 8.95277 15.0088 8.94354 15.0136 8.93327C15.0183 8.92301 15.0207 8.91188 15.0207 8.90067C15.0207 8.87734 15.0109 8.85498 14.9936 8.83848C14.9763 8.82198 14.9528 8.81271 14.9283 8.81271L8.51225 8.81271V8.62079L14.9283 8.62079C14.9528 8.62079 14.9763 8.61151 14.9936 8.59501C15.0109 8.57852 15.0207 8.55616 15.0207 8.53283C15.0186 8.51091 15.0079 8.49053 14.9908 8.47572C14.9737 8.46092 14.9514 8.45279 14.9283 8.45288L8.51225 8.45288V8.26095L14.9283 8.26095C14.9528 8.26095 14.9763 8.25168 14.9936 8.23518C15.0109 8.21868 15.0207 8.19633 15.0207 8.173C15.0207 8.16179 15.0183 8.15065 15.0136 8.14039C15.0088 8.13013 15.0019 8.12089 14.9932 8.11335C14.9845 8.10581 14.9742 8.10017 14.963 8.09666C14.9518 8.09314 14.94 8.09183 14.9283 8.09295L8.51225 8.09295V7.89302L14.9283 7.89302C14.94 7.89414 14.9518 7.89292 14.963 7.88941C14.9742 7.88589 14.9845 7.88016 14.9932 7.87262C15.0019 7.86508 15.0088 7.85594 15.0136 7.84567C15.0183 7.83541 15.0207 7.82428 15.0207 7.81307C15.0207 7.78974 15.0109 7.76738 14.9936 7.75088C14.9763 7.73438 14.9528 7.72511 14.9283 7.72511L8.51225 7.72511V7.53319L14.9283 7.53319C14.9514 7.53328 14.9737 7.52515 14.9908 7.51034C15.0079 7.49554 15.0186 7.47515 15.0207 7.45323C15.0207 7.4299 15.0109 7.40755 14.9936 7.39105C14.9763 7.37455 14.9528 7.36528 14.9283 7.36528L8.51225 7.36528V7.17335L14.9283 7.17335C14.9528 7.17335 14.9763 7.16408 14.9936 7.14758C15.0109 7.13108 15.0207 7.10863 15.0207 7.0853C15.0186 7.06338 15.0079 7.04309 14.9908 7.02829C14.9737 7.01348 14.9514 7.00526 14.9283 7.00535L8.51225 7.00535V6.81342L14.9283 6.81342C14.9528 6.81342 14.9763 6.80415 14.9936 6.78765C15.0109 6.77115 15.0207 6.7488 15.0207 6.72547C15.0207 6.71426 15.0183 6.70313 15.0136 6.69286C15.0088 6.6826 15.0019 6.67346 14.9932 6.66592C14.9845 6.65838 14.9742 6.65264 14.963 6.64913C14.9518 6.64561 14.94 6.64439 14.9283 6.64552L8.51225 6.64552V6.42958L9.62076 6.34962L14.9283 6.34962C14.94 6.35075 14.9518 6.34953 14.963 6.34601C14.9742 6.3425 14.9845 6.33676 14.9932 6.32922C15.0019 6.32168 15.0088 6.31244 15.0136 6.30218C15.0183 6.29192 15.0207 6.28088 15.0207 6.26967C15.0207 6.24634 15.0109 6.22389 14.9936 6.20739C14.9763 6.19089 14.9528 6.18162 14.9283 6.18162L12.1318 6.18162L15.3062 5.97378H16.1628V16.0262L15.2138 15.9781ZM7.8152 19.449V18.0495L11.2164 17.1777L9.79714 19.449L7.8152 19.449ZM7.8152 20.0967V19.9047L9.4948 19.9047L9.37724 20.0967L7.8152 20.0967ZM82.5068 11.7956V12.3874C82.5067 12.4094 82.5153 12.4307 82.5308 12.447C82.5464 12.4632 82.5678 12.4735 82.5908 12.4755H88.4694C88.4939 12.4755 88.5174 12.4662 88.5347 12.4497C88.552 12.4332 88.5618 12.4107 88.5618 12.3874V11.7956C88.5618 11.7844 88.5594 11.7734 88.5547 11.7631C88.5499 11.7529 88.543 11.7436 88.5343 11.7361C88.5256 11.7285 88.5153 11.7228 88.5041 11.7193C88.4929 11.7158 88.4811 11.7146 88.4694 11.7157H82.5908C82.5685 11.7157 82.5472 11.7241 82.5314 11.7391C82.5157 11.7541 82.5068 11.7744 82.5068 11.7956ZM86.6386 11.3318H82.5908C82.5678 11.3338 82.5464 11.344 82.5308 11.3602C82.5153 11.3765 82.5067 11.3978 82.5068 11.4198C82.5087 11.4404 82.5182 11.4597 82.5335 11.4744C82.5489 11.489 82.5692 11.4979 82.5908 11.4997H88.4694C88.4925 11.4998 88.5148 11.4917 88.5319 11.4769C88.549 11.4621 88.5597 11.4417 88.5618 11.4198V9.62843C88.4024 10.0325 88.1476 10.3964 87.8171 10.6917C87.4865 10.9871 87.0891 11.2061 86.6554 11.3318H86.6386ZM67.718 8.93269V8.13297C67.7193 8.12216 67.7181 8.11124 67.7144 8.10095C67.7106 8.09066 67.7044 8.08132 67.6964 8.07362C67.6883 8.06592 67.6785 8.06 67.6677 8.05644C67.6569 8.05287 67.6454 8.05173 67.634 8.05302L56.4731 8.05302C56.4617 8.05173 56.4502 8.05287 56.4394 8.05644C56.4286 8.06 56.4188 8.06592 56.4107 8.07362C56.4026 8.08132 56.3965 8.09066 56.3927 8.10095C56.389 8.11124 56.3878 8.12216 56.3891 8.13297V8.93269C56.3878 8.9435 56.389 8.95442 56.3927 8.96471C56.3965 8.97499 56.4026 8.98434 56.4107 8.99204C56.4188 8.99974 56.4286 9.00566 56.4394 9.00922C56.4502 9.01279 56.4617 9.01392 56.4731 9.01264L67.6508 9.01264C67.6685 9.01543 67.6867 9.01216 67.7021 9.00336C67.7174 8.99457 67.729 8.9809 67.7348 8.96471L67.718 8.93269ZM88.5954 11.3878V9.62843C88.4297 10.034 88.1675 10.3974 87.8294 10.6902C87.4914 10.9829 87.0866 11.1971 86.647 11.3158H82.5992C82.5762 11.3178 82.5548 11.3279 82.5392 11.3442C82.5237 11.3605 82.5151 11.3818 82.5152 11.4038C82.5171 11.4244 82.5266 11.4437 82.5419 11.4583C82.5573 11.473 82.5776 11.4819 82.5992 11.4837H88.4778C88.4908 11.4903 88.5052 11.4938 88.5199 11.494C88.5346 11.4941 88.5491 11.491 88.5622 11.4847C88.5754 11.4785 88.5868 11.4692 88.5954 11.458C88.6041 11.4467 88.6098 11.4336 88.6121 11.4198L88.5954 11.3878ZM88.5954 12.3555V11.7637C88.5954 11.7525 88.593 11.7414 88.5883 11.7311C88.5835 11.7208 88.5766 11.7116 88.5679 11.7041C88.5591 11.6965 88.5489 11.6909 88.5377 11.6874C88.5265 11.6839 88.5147 11.6825 88.503 11.6837H82.6244C82.6021 11.6837 82.5807 11.6921 82.565 11.7071C82.5493 11.7221 82.5404 11.7425 82.5404 11.7637V12.3555C82.5403 12.3775 82.5489 12.3988 82.5644 12.415C82.58 12.4313 82.6014 12.4414 82.6244 12.4434H88.503C88.5252 12.4487 88.5487 12.4458 88.5689 12.4354C88.5891 12.4251 88.6045 12.408 88.6121 12.3874L88.5954 12.3555ZM67.718 8.93269V8.13297C67.7193 8.12216 67.7181 8.11124 67.7144 8.10095C67.7106 8.09066 67.7044 8.08132 67.6964 8.07362C67.6883 8.06592 67.6785 8.06 67.6677 8.05644C67.6569 8.05287 67.6454 8.05173 67.634 8.05302L56.4731 8.05302C56.4617 8.05173 56.4502 8.05287 56.4394 8.05644C56.4286 8.06 56.4188 8.06592 56.4107 8.07362C56.4026 8.08132 56.3965 8.09066 56.3927 8.10095C56.389 8.11124 56.3878 8.12216 56.3891 8.13297V8.93269C56.3878 8.9435 56.389 8.95442 56.3927 8.96471C56.3965 8.97499 56.4026 8.98434 56.4107 8.99204C56.4188 8.99974 56.4286 9.00566 56.4394 9.00922C56.4502 9.01279 56.4617 9.01392 56.4731 9.01264L67.6508 9.01264C67.6685 9.01543 67.6867 9.01216 67.7021 9.00336C67.7174 8.99457 67.729 8.9809 67.7348 8.96471L67.718 8.93269Z" fill="#0E1D27"/>
</g>
<defs>
<clipPath id="clip0_882_3529">
<rect width="21.9522" height="118.008" fill="white" transform="matrix(0 1 -1 0 119.004 0.0239258)"/>
</clipPath>
</defs>
</svg>
